<svg width="26" height="21" viewBox="0 0 26 21" fill="none" xmlns="http://www.w3.org/2000/svg">
<path d="M13.8002 0.26001C16.03 0.26001 17.8617 0.58103 19.4544 1.14282C21.0472 1.7046 22.3214 2.50716 23.277 3.55047C24.153 4.43328 24.7902 5.4766 25.1883 6.68043C25.5865 7.804 25.8254 9.00783 25.8254 10.2117V11.0142C25.8254 12.218 25.5865 13.3416 25.1883 14.4652C24.7902 15.5888 24.153 16.6321 23.277 17.5951C22.3214 18.6385 21.0472 19.5213 19.4544 20.0831C17.8617 20.6448 16.03 20.9659 13.8002 20.9659H12.6056C9.73868 20.9659 7.34956 20.4041 5.43826 19.3608C3.76587 18.3977 2.49167 17.1136 1.77493 15.5085C1.05819 14.1442 0.739655 12.6193 0.739655 11.0142V10.2117C0.739655 8.60656 1.05819 7.08171 1.77493 5.71737C2.57131 4.11226 3.76587 2.82818 5.43826 1.94537C7.34956 0.902051 9.73868 0.340265 12.6056 0.340265H13.8002V0.26001ZM20.0119 10.3722C20.0119 8.84732 19.6137 7.64349 18.7377 6.68043C17.6228 5.4766 15.7911 4.83456 13.2427 4.83456C10.774 4.83456 8.9423 5.4766 7.74774 6.68043C6.87173 7.64349 6.3939 8.84732 6.3939 10.3722V10.7734C6.3939 11.4155 6.47355 12.0575 6.71246 12.6996C6.95137 13.3416 7.26991 13.9034 7.74774 14.3849C8.9423 15.669 10.774 16.3111 13.1631 16.3111C15.7115 16.3111 17.5431 15.669 18.6581 14.3849C19.5341 13.4219 19.9323 12.218 19.9323 10.6932V10.3722H20.0119Z" fill="black"/>
</svg>
