<svg width="25" height="21" viewBox="0 0 25 21" fill="none" xmlns="http://www.w3.org/2000/svg">
<path d="M11.8413 20.8856C9.05399 20.8856 6.82414 20.3238 4.99248 19.2805C3.39973 18.3977 2.20517 17.1136 1.40879 15.4282C0.692057 14.0639 0.373505 12.5391 0.373505 10.8537V10.1314C0.373505 8.5263 0.692057 7.00145 1.40879 5.71737C2.20517 4.11226 3.39973 2.82818 4.99248 1.86511C6.82414 0.821796 9.21326 0.26001 12.0006 0.26001H12.8766C16.8585 0.26001 19.805 1.06256 21.796 2.58741C22.672 3.22945 23.3091 3.95175 23.6276 4.83456C24.0258 5.63711 24.1851 6.51992 24.1851 7.40273V7.48298H18.5308L18.2123 6.84094C17.8141 6.11864 16.9381 5.55685 15.5046 5.15558C14.7082 4.91481 13.673 4.83456 12.3988 4.83456C10.1689 4.83456 8.49653 5.39634 7.3816 6.51992C6.50559 7.48298 6.02776 8.76706 6.02776 10.2919V10.6129C6.02776 11.3352 6.1074 11.9773 6.34631 12.6996C6.58523 13.3416 6.90378 13.9837 7.46124 14.4652C8.6558 15.7493 10.3282 16.3111 12.558 16.3111C14.549 16.3111 16.0621 15.8295 17.177 14.9467C17.5752 14.6257 17.8937 14.2244 18.053 13.9034C18.2123 13.5824 18.2919 13.3416 18.2919 13.1811H12.8766V9.56962H24.3444V20.4843H19.9643C19.9643 20.2436 19.9643 19.762 19.9643 19.0397C19.9643 18.3174 19.9643 17.4346 19.9643 16.9531C19.805 17.1136 19.2476 17.9162 18.6901 18.3977C17.8141 19.2002 16.6992 19.9225 15.1861 20.3238C14.3101 20.5646 13.3544 20.7251 12.1599 20.7251H11.8413V20.8856Z" fill="black"/>
</svg>
