<svg width="167" height="34" viewBox="0 0 167 34" fill="none" xmlns="http://www.w3.org/2000/svg">
<path d="M61.7192 26.6444L60.1264 22.9526H49.3754L47.7826 26.6444H42.208L51.0478 6.58057H58.3744L67.6124 26.5641H61.7192V26.6444ZM58.2948 18.7794L54.7111 10.5933L51.207 18.7794H58.2948Z" fill="black"/>
<path d="M78.8413 26.8856C76.054 26.8856 73.8241 26.3238 71.9925 25.2805C70.3997 24.3977 69.2052 23.1136 68.4088 21.4282C67.6921 20.0639 67.3735 18.5391 67.3735 16.8537V16.1314C67.3735 14.5263 67.6921 13.0014 68.4088 11.7174C69.2052 10.1123 70.3997 8.82818 71.9925 7.86511C73.8241 6.8218 76.2133 6.26001 79.0006 6.26001H79.8766C83.8585 6.26001 86.805 7.06256 88.796 8.58741C89.672 9.22945 90.3091 9.95175 90.6276 10.8346C91.0258 11.6371 91.1851 12.5199 91.1851 13.4027V13.483H85.5308L85.2123 12.8409C84.8141 12.1186 83.9381 11.5569 82.5046 11.1556C81.7082 10.9148 80.673 10.8346 79.3988 10.8346C77.1689 10.8346 75.4965 11.3963 74.3816 12.5199C73.5056 13.483 73.0278 14.7671 73.0278 16.2919V16.6129C73.0278 17.3352 73.1074 17.9773 73.3463 18.6996C73.5852 19.3416 73.9038 19.9837 74.4612 20.4652C75.6558 21.7493 77.3282 22.3111 79.558 22.3111C81.549 22.3111 83.0621 21.8295 84.177 20.9467C84.5752 20.6257 84.8937 20.2244 85.053 19.9034C85.2123 19.5824 85.2919 19.3416 85.2919 19.1811H79.8766V15.5696H91.3444V26.4843H86.9643C86.9643 26.2436 86.9643 25.762 86.9643 25.0397C86.9643 24.3174 86.9643 23.4346 86.9643 22.9531C86.805 23.1136 86.2476 23.9162 85.6901 24.3977C84.8141 25.2002 83.6992 25.9225 82.1861 26.3238C81.3101 26.5646 80.3544 26.7251 79.1599 26.7251H78.8413V26.8856Z" fill="black"/>
<path d="M115.554 18.7794C116.271 19.6622 116.669 20.7857 116.669 22.2303V24.317C116.669 25.1195 116.669 25.6011 116.749 25.8418C116.828 26.0826 116.908 26.3234 116.988 26.4839V26.6444H111.333C111.254 26.4839 111.254 26.3234 111.254 26.2431C111.174 26.0826 111.174 25.7616 111.174 25.28V23.6749C111.174 22.3106 110.855 21.4278 110.298 20.7857C109.741 20.224 108.785 19.9029 107.431 19.9029H100.264V26.7246H94.7687V6.58057H108.148C111.493 6.58057 113.802 7.22261 115.156 8.42644C116.032 9.22899 116.51 10.4328 116.51 11.9577V12.1984C116.51 13.4023 116.112 14.4456 115.395 15.2481C114.678 16.0507 113.643 16.6125 112.369 16.9335C113.722 17.3348 114.837 17.8966 115.554 18.7794ZM100.264 15.2481H107.909C108.944 15.2481 109.661 15.0074 110.139 14.6061C110.537 14.2851 110.696 13.8035 110.696 13.1615V13.0812C110.696 12.4392 110.537 11.9577 110.139 11.6366C109.661 11.2354 108.944 11.0749 107.909 11.0749H100.264V15.2481Z" fill="black"/>
<path d="M131.8 6.26001C134.03 6.26001 135.862 6.58103 137.454 7.14282C139.047 7.7046 140.321 8.50716 141.277 9.55047C142.153 10.4333 142.79 11.4766 143.188 12.6804C143.587 13.804 143.825 15.0078 143.825 16.2117V17.0142C143.825 18.218 143.587 19.3416 143.188 20.4652C142.79 21.5888 142.153 22.6321 141.277 23.5951C140.321 24.6385 139.047 25.5213 137.454 26.0831C135.862 26.6448 134.03 26.9659 131.8 26.9659H130.606C127.739 26.9659 125.35 26.4041 123.438 25.3608C121.766 24.3977 120.492 23.1136 119.775 21.5085C119.058 20.1442 118.74 18.6193 118.74 17.0142V16.2117C118.74 14.6066 119.058 13.0817 119.775 11.7174C120.571 10.1123 121.766 8.82818 123.438 7.94537C125.35 6.90205 127.739 6.34026 130.606 6.34026H131.8V6.26001ZM138.012 16.3722C138.012 14.8473 137.614 13.6435 136.738 12.6804C135.623 11.4766 133.791 10.8346 131.243 10.8346C128.774 10.8346 126.942 11.4766 125.748 12.6804C124.872 13.6435 124.394 14.8473 124.394 16.3722V16.7734C124.394 17.4155 124.474 18.0575 124.712 18.6996C124.951 19.3416 125.27 19.9034 125.748 20.3849C126.942 21.669 128.774 22.3111 131.163 22.3111C133.711 22.3111 135.543 21.669 136.658 20.3849C137.534 19.4219 137.932 18.218 137.932 16.6932V16.3722H138.012Z" fill="black"/>
<path d="M156.01 26.9662C153.143 26.9662 150.834 26.565 149.161 25.7624C147.807 25.1204 146.852 24.2376 146.215 23.0337C145.816 22.2312 145.578 21.3484 145.578 20.2248V20.0643H151.55C151.55 20.7866 151.869 21.3484 152.347 21.8299C153.064 22.5522 154.338 22.9535 156.249 22.9535H156.408C158.24 22.9535 159.514 22.7127 160.311 22.1509C160.788 21.8299 161.107 21.2681 161.107 20.5458C161.107 19.9038 160.868 19.4222 160.311 19.1012C159.673 18.7802 158.558 18.5394 157.045 18.4592L154.417 18.3789C151.391 18.2987 149.161 17.6566 147.728 16.5331C146.454 15.57 145.896 14.2057 145.896 12.6006V12.3598C145.896 10.5139 146.533 9.14958 147.728 8.18651C149.321 6.98269 151.949 6.4209 155.771 6.4209H156.647C160.549 6.4209 163.337 7.06294 164.929 8.34702C166.044 9.22983 166.602 10.5942 166.602 12.2795V12.6006H160.709C160.629 12.2795 160.549 12.0388 160.47 11.798C160.39 11.5572 160.151 11.3165 159.912 11.156C159.196 10.6744 157.921 10.4337 156.249 10.4337H156.01C154.338 10.4337 153.143 10.5942 152.506 10.9152C151.949 11.2362 151.63 11.6375 151.63 12.1993C151.63 12.7611 151.869 13.2426 152.347 13.4834C152.904 13.8044 153.94 14.0451 155.453 14.1254L158.24 14.2057C161.585 14.3662 163.894 14.928 165.248 15.9713C166.443 16.8541 167 18.2184 167 20.0643V20.3853C167 22.3114 166.443 23.756 165.248 24.7994C163.576 26.3242 160.788 27.0465 156.806 27.0465H156.01V26.9662Z" fill="black"/>
<path d="M32.2532 18.7797H21.6614L29.1473 26.3237C29.3862 26.5645 29.3862 26.9658 29.1473 27.2868C28.8288 27.6881 28.5102 28.0893 28.112 28.4104C27.7935 28.7314 27.3953 29.1327 26.9971 29.4537C26.7582 29.6944 26.2804 29.6944 26.0414 29.4537L18.5555 21.9097V32.5836C18.5555 32.9849 18.3166 33.2257 17.9184 33.3059C17.4406 33.3862 16.9628 33.3862 16.4053 33.3862C15.9275 33.3862 15.37 33.3862 14.8922 33.3059C14.494 33.3059 14.2551 32.9849 14.2551 32.5836V21.8294L6.76918 29.3734C6.53027 29.6142 6.13208 29.6142 5.81353 29.4537C5.49498 29.1327 5.17643 28.8919 4.85788 28.5709C4.77825 28.4906 4.69861 28.4104 4.53933 28.2498C4.22079 27.9288 3.90224 27.6078 3.66332 27.2868C3.42441 27.046 3.42441 26.6447 3.74296 26.3237L11.2289 18.7797H0.796375C0.398187 18.7797 0.159275 18.539 0.0796375 18.1377C0 17.6562 0 17.1746 0 16.6128C0 16.0511 0 15.5695 0.0796375 15.088C0.0796375 14.767 0.398187 14.4459 0.796375 14.4459H11.3882L3.8226 6.90195C3.58369 6.66119 3.58369 6.25991 3.8226 5.93889C4.14115 5.61787 4.4597 5.21659 4.85788 4.89557C5.17643 4.49429 5.57462 4.17327 5.97281 3.85225C6.21172 3.61149 6.68955 3.61149 6.92846 3.85225L14.4144 11.3962V0.802553C14.4144 0.401276 14.6533 0.160511 15.0515 0.0802553C15.5293 0 16.0071 0 16.485 0C16.9628 0 17.5202 0 17.9981 0.0802553C18.3963 0.0802553 18.6352 0.401276 18.6352 0.802553V11.4765L26.1211 3.93251C26.36 3.69174 26.7582 3.69174 27.0767 3.93251C27.4749 4.25353 27.7935 4.57455 28.1917 4.97583C28.5102 5.29685 28.9084 5.69812 29.2269 6.0994C29.4659 6.34016 29.4659 6.8217 29.2269 7.06246L21.6614 14.4459H32.2532C32.6514 14.4459 32.8903 14.6867 32.9699 15.088C33.0495 15.5695 33.0495 16.0511 33.0495 16.6128C33.0495 17.1746 33.0495 17.6562 32.9699 18.1377C32.8903 18.539 32.5717 18.7797 32.2532 18.7797Z" fill="#52A158"/>
</svg>
