<svg width="23" height="21" viewBox="0 0 23 21" fill="none" xmlns="http://www.w3.org/2000/svg">
<path d="M21.5541 12.7794C22.2708 13.6622 22.669 14.7857 22.669 16.2303V18.317C22.669 19.1195 22.669 19.6011 22.7487 19.8418C22.8283 20.0826 22.9079 20.3234 22.9876 20.4839V20.6444H17.3333C17.2537 20.4839 17.2537 20.3234 17.2537 20.2431C17.174 20.0826 17.174 19.7616 17.174 19.28V17.6749C17.174 16.3106 16.8555 15.4278 16.298 14.7857C15.7406 14.224 14.7849 13.9029 13.4311 13.9029H6.2637V20.7246H0.768707V0.580566H14.1478C17.4926 0.580566 19.8021 1.22261 21.1559 2.42644C22.0319 3.22899 22.5097 4.43282 22.5097 5.95767V6.19843C22.5097 7.40226 22.1116 8.44558 21.3948 9.24813C20.6781 10.0507 19.6428 10.6125 18.3686 10.9335C19.7224 11.3348 20.8374 11.8966 21.5541 12.7794ZM6.2637 9.24813H13.9089C14.9442 9.24813 15.6609 9.00737 16.1387 8.60609C16.5369 8.28507 16.6962 7.80354 16.6962 7.1615V7.08124C16.6962 6.4392 16.5369 5.95767 16.1387 5.63665C15.6609 5.23537 14.9442 5.07486 13.9089 5.07486H6.2637V9.24813Z" fill="black"/>
</svg>
